#!OML:ASF I:\Actors\actors\Patient Classification 1\Patient 1\Session 1\Subject1.ASF
:FULLY-SPECIFIED
:DEGREES
287
root -0.321494 17.5487 7.50256 5.09295 -0.636663 -8.3547
lowerback 3.6573 1.48081 4.89855
upperback -7.43921 2.51443 1.05757
thorax -9.80057 0.904771 -1.91193
lowerneck -12.4212 -1.31098 2.70601
upperneck 29.8731 -2.33624 -0.80584
head 11.7732 -0.846122 -1.08536
rclavicle 7.95139e-016 2.22639e-014
rhumerus -19.6481 34.0781 -89.1292
rradius 87.9171
rwrist 27.0433
rhand -19.4356 -40.4265
rfingers 7.12502
rthumb 6.8847 -790.295
lclavicle 7.95139e-016 2.22639e-014
lhumerus -29.6639 -24.79 103.238
lradius 89.8757
lwrist 12.7647
lhand -34.3633 -2.65846
lfingers 7.12502
lthumb -7.5302 27.1875
rfemur 0.114615 22.815 26.7597
rtibia 2.94296
rfoot -11.2462 -21.5953
rtoes -0.284184
lfemur 8.20472 -38.506 -15.5898
ltibia -3.74389
lfoot -12.9348 46.5671
ltoes 5.00992
288
root -0.333388 17.5525 7.51084 5.14587 -0.835379 -7.88925
lowerback 3.38236 1.54847 4.10162
upperback -7.42676 2.52004 1.04886
thorax -9.64529 0.971685 -1.46898
lowerneck -12.474 -1.44946 2.46417
upperneck 29.9925 -2.46642 -0.848707
head 11.8303 -0.936055 -1.07953
rclavicle -1.11319e-014 -1.59028e-014
rhumerus -20.2021 34.0391 -89.2225
rradius 83.9524
rwrist 16.5198
rhand -1.09444 -45.4825
rfingers 7.12502
rthumb 24.5417 -793.93
lclavicle -1.11319e-014 -1.59028e-014
lhumerus -29.4415 -24.5058 103.392
lradius 89.8075
lwrist 12.4049
lhand -34.5273 -3.15444
lfingers 7.12502
lthumb -7.68853 26.6858
rfemur 0.0490032 23.057 26.2254
rtibia 2.94508
rfoot -11.3036 -21.6734
rtoes -0.0998396
lfemur 8.17822 -38.4593 -16.0814
ltibia -3.70818
lfoot -13.0992 46.657
ltoes 5.29809
289
root -0.338928 17.5516 7.51699 5.17485 -0.970419 -7.62242
lowerback 3.15947 1.61258 3.71923
upperback -7.38162 2.55953 1.02699
thorax -9.47131 1.02313 -1.27552
lowerneck -12.5157 -1.57965 2.24647
upperneck 30.004 -2.59834 -0.858455
head 11.8433 -1.02135 -1.06423
rclavicle -6.65929e-015 -3.02153e-014
rhumerus -19.8546 32.2336 -88.4457
rradius 80.9158
rwrist -0.921176
rhand 17.3512 -58.2321
rfingers 7.12502
rthumb 42.06 -802.802
lclavicle -6.65929e-015 -3.02153e-014
lhumerus -29.255 -24.3887 103.399
lradius 89.6456
lwrist 11.745
lhand -34.6387 -3.12605
lfingers 7.12502
lthumb -7.79609 26.7102
rfemur 0.0241001 23.2371 25.9243
rtibia 2.94192
rfoot -11.3232 -21.7426
rtoes -0.083901
lfemur 8.22714 -38.5019 -16.4097
ltibia -3.72326
lfoot -13.2209 46.7867
ltoes 5.47805
290
root -0.337371 17.5465 7.51763 5.06054 -1.15979 -7.80656
lowerback 3.26959 1.72959 4.0199
upperback -7.27382 2.74231 1.01832
thorax -9.39719 1.09247 -1.47399
lowerneck -12.6872 -1.73051 2.13145
upperneck 29.9056 -2.79752 -0.838776
head 11.8379 -1.12247 -1.06518
rclavicle -1.37161e-014 -1.66979e-014
rhumerus -19.5123 29.1332 -87.1965
rradius 79.9121
rwrist -10.5511
rhand 7.31537 -58.1807
rfingers 7.12502
rthumb 32.5758 -805.27
lclavicle -1.37161e-014 -1.66979e-014
lhumerus -29.0494 -24.565 103.227
lradius 89.3321
lwrist 11.0379
lhand -34.6129 -3.00336
lfingers 7.12502
lthumb -7.77119 26.8338
rfemur 0.165207 23.2424 26.2036
rtibia 2.99264
rfoot -11.346 -21.5616
rtoes -0.164538
lfemur 8.63107 -38.5445 -16.4575
ltibia -3.86555
lfoot -13.4986 47.0075
ltoes 5.87779
291
root -0.339546 17.5462 7.51411 4.79027 -1.70491 -8.24684
lowerback 3.8012 1.98293 4.51109
upperback -7.12861 3.15463 1.0779
thorax -9.514 1.25822 -1.74792
lowerneck -12.8986 -1.92142 2.05209
upperneck 29.6888 -3.04585 -0.873064
head 11.7915 -1.25 -1.09806
rclavicle -2.75317e-014 -9.54166e-015
rhumerus -20.2142 27.1232 -86.7629
rradius 80.81
rwrist -15.7287
rhand -4.11573 -57.5564
rfingers 7.12502
rthumb 21.6428 -806.367
lclavicle -2.75317e-014 -9.54166e-015
lhumerus -28.9693 -24.9071 102.982
lradius 89.0365
lwrist 10.5266
lhand -34.4944 -2.9132
lfingers 7.12502
lthumb -7.6568 26.9282
rfemur 0.437255 23.1709 26.8465
rtibia 3.13494
rfoot -11.2749 -20.9726
rtoes -0.60564
lfemur 9.56315 -38.5731 -16.5422
ltibia -4.20137
lfoot -14.0293 47.5734
ltoes 6.56856
292
root -0.324863 17.5388 7.51425 5.05884 -1.08094 -8.39117
lowerback 3.73604 1.81364 5.07575
upperback -7.18837 2.97593 1.10315
thorax -9.53244 1.12963 -2.01315
lowerneck -12.8655 -2.05036 1.85256
upperneck 29.3433 -3.11064 -1.08237
head 11.6459 -1.33324 -1.14407
rclavicle 2.29596e-014 -6.36111e-015
rhumerus -22.4238 28.8556 -88.1308
rradius 85.5061
rwrist -16.0331
rhand -11.4011 -58.5405
rfingers 7.12502
rthumb 14.6341 -808.004
lclavicle 2.29596e-014 -6.36111e-015
lhumerus -29.2507 -24.9463 102.814
lradius 88.9026
lwrist 10.2369
lhand -34.4903 -2.62576
lfingers 7.12502
lthumb -7.65279 27.2158
rfemur 0.267484 22.9938 26.8806
rtibia 2.91313
rfoot -11.29 -21.358
rtoes -0.49206
lfemur 8.72609 -38.4386 -15.8381
ltibia -4.0037
lfoot -13.3523 46.8959
ltoes 5.62325
293
root -0.32444 17.5454 7.51829 5.44135 -0.841283 -8.14918
lowerback 3.58558 1.65504 4.89096
upperback -7.34568 2.75312 1.21331
thorax -9.64537 1.0345 -1.76524
lowerneck -12.6837 -1.99255 1.58851
upperneck 29.1222 -2.84819 -1.42721
head 11.524 -1.29082 -1.18416
rclavicle -1.58034e-014 -1.86858e-014
rhumerus -23.4934 28.7084 -88.4531
rradius 88.8339
rwrist -7.96961
rhand -13.5729 -59.6856
rfingers 7.12502
rthumb 12.5409 -809.289
lclavicle -1.58034e-014 -1.86858e-014
lhumerus -29.8587 -24.477 102.72
lradius 88.8081
lwrist 10.1821
lhand -34.8665 -2.69575
lfingers 7.12502
lthumb -8.01593 27.1322
rfemur -0.114902 23.2554 26.4524
rtibia 2.81103
rfoot -11.3163 -21.8234
rtoes -0.306209
lfemur 7.97355 -38.5097 -15.6359
ltibia -3.86335
lfoot -13.2444 46.7016
ltoes 5.60286
294
root -0.327582 17.5579 7.52487 5.87437 -0.714028 -7.70768
lowerback 3.34878 1.49212 4.45617
upperback -7.54763 2.49393 1.25045
thorax -9.76036 0.937401 -1.44946
lowerneck -12.573 -1.81906 1.53692
upperneck 29.1788 -2.47502 -1.78478
head 11.5245 -1.17253 -1.25669
rclavicle 1.03865e-014 1.94809e-014
rhumerus -21.6564 20.7628 -85.0269
rradius 76.1587
rwrist 13.5704
rhand -30.6564 -2.7018
rfingers 7.12502
rthumb -3.95138 -752.645
lclavicle 1.03865e-014 1.94809e-014
lhumerus -30.5613 -23.9228 102.587
lradius 88.6485
lwrist 10.4704
lhand -35.5652 -3.10237
lfingers 7.12502
lthumb -8.69019 26.6987
rfemur -0.592135 23.6998 25.7636
rtibia 2.76366
rfoot -11.4069 -22.3674
rtoes 0.0713218
lfemur 7.19913 -38.7058 -15.6675
ltibia -3.69905
lfoot -13.2937 46.7104
ltoes 5.78842
295
root -0.317 17.5665 7.52907 6.18623 -0.535965 -7.46485
lowerback 3.21345 1.35166 4.51839
upperback -7.70351 2.30238 1.18604
thorax -9.8598 0.832105 -1.52867
lowerneck -12.5097 -1.70589 1.80055
upperneck 29.32 -2.25867 -2.18181
head 11.5605 -1.09468 -1.42154
rclavicle 5.71506e-015 -3.57812e-015
rhumerus -21.7698 21.3749 -85.4735
rradius 82.162
rwrist -1.76065
rhand -29.6343 -8.25419
rfingers 7.12502
rthumb -2.96431 -758.213
lclavicle 5.71506e-015 -3.57812e-015
lhumerus -31.1489 -23.6461 102.435
lradius 88.447
lwrist 11.031
lhand -36.0193 -3.19324
lfingers 7.12502
lthumb -9.12846 26.5892
rfemur -0.950832 23.7313 25.2605
rtibia 2.67039
rfoot -11.4468 -22.5635
rtoes 0.33052
lfemur 6.57164 -38.9623 -15.6509
ltibia -3.48801
lfoot -13.2459 46.7485
ltoes 5.79712
296
root -0.304197 17.5708 7.53202 6.36386 -0.479005 -7.50316
lowerback 3.15957 1.29049 4.90273
upperback -7.78452 2.24744 1.13981
thorax -9.91012 0.7711 -1.78484
lowerneck -12.4217 -1.68497 2.17486
upperneck 29.3567 -2.19624 -2.60145
head 11.5458 -1.0779 -1.63224
rclavicle 8.54774e-015 -2.78299e-014
rhumerus -21.4106 20.9064 -85.4492
rradius 87.2068
rwrist -7.89313
rhand -28.5447 -14.7239
rfingers 7.12502
rthumb -1.91196 -764.695
lclavicle 8.54774e-015 -2.78299e-014
lhumerus -31.5154 -23.6184 102.346
lradius 88.2063
lwrist 11.4677
lhand -36.1548 -3.24831
lfingers 7.12502
lthumb -9.25915 26.5284
rfemur -1.14295 23.6818 25.1497
rtibia 2.57461
rfoot -11.4449 -22.5599
rtoes 0.547476
lfemur 6.29581 -39.1507 -15.5153
ltibia -3.41851
lfoot -13.2921 46.8704
ltoes 5.87908
